<svg width="200" height="20" viewBox="0 0 200 20" fill="none" xmlns="http://www.w3.org/2000/svg">
<path d="M0 0.469727H10.8186V4.36443H4.1832V7.61002H10.0974V11.5047H4.1832V14.8224H11.1071V18.7171H0V0.469727Z" fill="black"/>
<path d="M37.2879 9.48525L43.3463 18.7893H38.4419L34.5472 12.6587L30.6525 18.7893H25.748L31.8064 9.48525L26.0365 0.541851H30.941L34.6193 6.45603L38.2255 0.469727H43.1299L37.2879 9.48525Z" fill="black"/>
<path d="M58.781 18.7896V0.470073C59.7907 0.470073 62.9642 0.397949 64.4067 0.397949C69.9603 0.397949 71.8355 3.28291 71.8355 6.45638C71.8355 9.70197 69.3111 12.5869 65.0558 12.5869C64.6952 12.5869 63.6855 12.5869 63.0363 12.5148V18.7175H58.781V18.7896ZM62.9642 4.4369V8.6201C63.5412 8.69223 64.2624 8.76435 64.8394 8.76435C65.9213 8.76435 67.2917 8.25948 67.2917 6.5285C67.2917 4.94177 66.2098 4.4369 64.7673 4.4369C64.2624 4.36478 63.8297 4.36478 62.9642 4.4369Z" fill="black"/>
<path d="M96.3583 0.181152C101.912 0.181152 106.095 3.78736 106.095 9.62942C106.095 15.183 101.912 19.0777 96.3583 19.0777C90.8048 19.0777 86.6216 15.4715 86.6216 9.62942C86.6216 4.36435 90.5163 0.181152 96.3583 0.181152ZM96.3583 15.183C99.8203 15.183 101.623 12.7308 101.623 9.62942C101.623 6.31171 99.3154 4.07586 96.3583 4.07586C93.3291 4.07586 91.0933 6.23958 91.0933 9.62942C91.0933 12.8029 93.4734 15.183 96.3583 15.183Z" fill="black"/>
<path d="M136.82 16.9861C135.738 18.2122 133.358 19.0777 130.833 19.0777C125.135 19.0777 121.241 15.3272 121.241 9.62942C121.241 4.36435 124.486 0.181152 130.833 0.181152C133.285 0.181152 135.305 1.04664 136.459 2.05638L134.584 5.22984C133.574 4.65285 132.564 4.07586 130.833 4.07586C128.02 4.07586 125.712 6.02321 125.712 9.62942C125.712 12.875 127.948 15.183 131.266 15.183C132.564 15.183 134.007 14.7502 135.233 13.8847L136.82 16.9861Z" fill="black"/>
<path d="M158.024 0.469727H161.774L169.347 18.7893H164.875L163.361 14.9667H156.148L154.634 18.7893H150.451L158.024 0.469727ZM157.735 10.9999H161.846L159.827 5.80692L157.735 10.9999Z" fill="black"/>
<path d="M184.782 18.7896V0.470073C185.792 0.470073 190.48 0.397949 190.984 0.397949C195.961 0.397949 197.764 2.85017 197.764 6.24001C197.764 9.62984 195.673 11.0002 194.663 11.5051L200 18.7175H194.951L190.48 12.2984H188.965V18.7175H184.782V18.7896ZM188.965 4.4369V8.47585H190.48C192.066 8.47585 193.365 7.89886 193.365 6.38425C193.365 5.37452 192.86 4.36478 190.84 4.36478C190.191 4.36478 189.83 4.36478 188.965 4.4369Z" fill="black"/>
</svg>
