<svg width="413" height="206" viewBox="0 0 413 206" fill="none" xmlns="http://www.w3.org/2000/svg">
<g clip-path="url(#clip0)">
<path d="M206.3 0C262.8 0 313.9 7.5 351 19.7C389.1 32.2 412.6 46.9 412.6 66.7C412.6 86.5 389.1 104.2 351 116.7C313.9 128.9 262.8 136.4 206.3 136.4C149.8 136.4 98.7 128.9 61.6 116.7C23.5 104.2 0 86.5 0 66.7C0 46.9 23.5 32.2 61.6 19.7C98.7 7.5 149.8 0 206.3 0ZM349.2 22.3C312.7 10.3 262.2 2.9 206.3 2.9C150.4 2.9 99.9 10.4 63.4 22.3C27.9 34 5.9 49.7 5.9 66.7C5.9 83.7 27.9 99.4 63.4 111.1C99.9 123.1 150.4 130.5 206.3 130.5C262.2 130.5 312.7 123.1 349.2 111.1C384.7 99.4 406.7 83.7 406.7 66.7C406.7 49.7 384.7 34 349.2 22.3Z" fill="#1B1918"/>
<path d="M206.3 0C94 0 2.89999 29.9 2.89999 66.7C2.89999 103.5 93.9 133.4 206.3 133.4C318.7 133.4 409.7 103.5 409.7 66.7C409.7 29.9 318.6 0 206.3 0ZM86.5 79.4C69.1 78.8 58.9 72.5 55.2 58.8C51.5 38.6 97 22 176.4 15.1C176.4 15.1 156.2 31.9 114.9 65.1C104.2 74.6 96.1 79.5 86.5 79.4ZM251.4 91.2C221.1 93.9 190.9 93.9 160.6 91.2C157.4 91.5 148.5 76.5 150.5 74.7C172.9 51.9 189 43.5 189 43.5C200.6 33.9 212.1 33.9 223.7 43.5C250.5 61.6 262.1 74 262.1 74C264.5 76 255 91.2 251.4 91.2ZM357.9 58.3C354.2 72 344.1 78.4 326.6 79C316.9 79.1 308.8 74.2 298.2 64.7C257 31.5 236.7 14.7 236.7 14.7C316.2 21.6 361.7 38.1 357.9 58.3Z" fill="url(#paint0_linear)"/>
<path d="M206.3 8.6C108.2 8.6 28.6 33.6 28.6 64.3C28.6 95.1 108.1 120 206.3 120C304.5 120 384 95.1 384 64.3C384 33.6 304.4 8.6 206.3 8.6ZM86.5 79.4C69.1 78.8 58.9 72.5 55.2 58.8C51.5 38.6 97 22 176.4 15.1C176.4 15.1 156.2 31.9 114.9 65.1C104.2 74.6 96.1 79.5 86.5 79.4ZM251.4 91.2C221.1 93.9 190.9 93.9 160.6 91.2C157.4 91.4 148.5 76.5 150.5 74.7C172.8 52.8 187 41.9 187 41.9C198.6 32.3 213 32.8 224.5 42.5C250.1 62.9 262.2 73.1 262.2 73.1C264.6 75 255 91.2 251.4 91.2ZM357.9 58.3C354.2 72 344.1 78.4 326.6 79C316.9 79.1 308.8 74.2 298.2 64.7C257 31.5 236.7 14.7 236.7 14.7C316.2 21.6 361.7 38.1 357.9 58.3Z" fill="url(#paint1_linear)"/>
<path d="M150.5 74.7C122.5 86.1 108.5 91.8 108.5 91.8C148.4 54.7 176.7 31.6 193.6 22.5C203 16.2 211.5 16.2 219.2 22.5C246.2 41.5 274.6 64.3 304.5 91.1C276.1 80.1 262.2 74.1 262.2 74.1C232.1 47.3 213.5 35.4 206.5 36.3C195.9 37 177.2 49.4 150.5 74.7Z" fill="url(#paint2_linear)"/>
<path d="M251.8 91.1C258.2 86 261.3 79.7 262.2 74.1C290.6 85.7 304.5 91.1 304.5 91.1C304.9 94.6 304.4 97.7 301.5 98.9C268.4 93.2 251.8 91.1 251.8 91.1Z" fill="url(#paint3_linear)"/>
<path d="M160.6 91.2C154.2 86.1 151.4 80.4 150.5 74.7C122.1 86.3 108.5 91.8 108.5 91.8C108.1 95.3 108.6 98.4 111.5 99.6C144.6 94 160.6 91.2 160.6 91.2Z" fill="url(#paint4_linear)"/>
<path d="M160.6 91.2C127.7 96.5 111.5 99.7 111.5 99.7C175.1 112.3 238.4 112.1 301.4 99C268 93.9 251.7 91.2 251.7 91.2C219.6 93.6 188.8 93.2 160.6 91.2Z" fill="#B1B3B4"/>
<path d="M94.2 162.7V172.5H45.4C45.4 172.5 43.6 172.1 43.6 174.3C43.6 176.6 43.6 193.9 43.6 193.9C43.6 193.9 43.3 195.7 45.4 195.7C47.5 195.7 94 195.7 94 195.7V204.6H43.6C43.6 204.6 33.9 203.8 33.9 194.9V172.7C33.9 172.7 32.8 162.7 43.9 162.7H94.2Z" fill="#ffffff"/>
<path d="M182.7 179.4H227V188.5H180.9V193.9C180.9 193.9 180.6 195.7 182.8 195.7C185 195.7 233 195.7 233 195.7V204.6H181C181 204.6 170.9 203.8 170.9 194.9V172.7C170.9 172.7 169.7 162.7 181.2 162.7L233.1 162.6V171.4C233.1 171.4 186.8 171.4 182.8 171.4C182.8 171.4 180.9 171.6 180.9 173.3C180.9 175.1 180.9 175.1 180.9 175.1V179.2L182.7 179.4Z" fill="#ffffff"/>
<path d="M101.6 162.4H111.3V179.6H152.6V162.6H162.7V205.2H152.9V188.8H111.3V205H101.5L101.6 162.4Z" fill="#ffffff"/>
<path d="M240.7 162.6H293.9H296C296 162.6 302.8 165.1 302.8 169.4C302.8 173.7 302.8 179.4 302.8 179.4C302.8 179.4 303.4 186.5 295.7 186.5C288 186.5 287.3 186.5 287.3 186.5L304.9 205.2H292.1L275.8 186.4H251V205H241L240.7 162.6ZM250.7 179.2H292C292 179.2 294.1 178.9 294.1 177.1C294.1 175.3 294.1 174.2 294.1 174.2C294.1 174.2 294.5 172.2 292.1 172.2H250.6L250.7 179.2Z" fill="#ffffff"/>
<path d="M304.9 162.4H319.9L342.5 182.2L365.1 162.4H378.8L348.1 190.5V204.9H336.8V190.4L304.9 162.4Z" fill="#ffffff"/>
</g>
<defs>
<linearGradient id="paint0_linear" x1="206.307" y1="133.413" x2="206.307" y2="0" gradientUnits="userSpaceOnUse">
<stop stop-color="#3D3E3A"/>
<stop offset="0.49" stop-color="#494945"/>
<stop offset="1" stop-color="white"/>
</linearGradient>
<linearGradient id="paint1_linear" x1="206.307" y1="120.072" x2="206.307" y2="8.6034" gradientUnits="userSpaceOnUse">
<stop stop-color="#D7D6D5"/>
<stop offset="0.36" stop-color="#CAC7C6"/>
<stop offset="0.47" stop-color="#DBD9D8"/>
<stop offset="0.54" stop-color="white"/>
<stop offset="0.62" stop-color="#1B1918"/>
<stop offset="1" stop-color="#1B1918"/>
</linearGradient>
<linearGradient id="paint2_linear" x1="108.547" y1="54.7494" x2="304.528" y2="54.7494" gradientUnits="userSpaceOnUse">
<stop stop-color="#1B1918"/>
<stop offset="0.23" stop-color="#282726"/>
<stop offset="0.51" stop-color="#E3E2E1"/>
<stop offset="0.81" stop-color="#393939"/>
<stop offset="1" stop-color="#1B1918"/>
</linearGradient>
<linearGradient id="paint3_linear" x1="251.858" y1="86.4793" x2="304.658" y2="86.4793" gradientUnits="userSpaceOnUse">
<stop stop-color="#ECECED"/>
<stop offset="1" stop-color="#A6A5A1"/>
</linearGradient>
<linearGradient id="paint4_linear" x1="108.385" y1="87.1685" x2="160.642" y2="87.1685" gradientUnits="userSpaceOnUse">
<stop stop-color="#ECECED"/>
<stop offset="1" stop-color="#A6A5A1"/>
</linearGradient>
<clipPath id="clip0">
<rect width="412.6" height="205.2" fill="white"/>
</clipPath>
</defs>
</svg>
