<svg width="26" height="26" viewBox="0 0 26 26" fill="none" xmlns="http://www.w3.org/2000/svg">
<path d="M16.8086 3.80859C16.8086 4.22932 16.4676 4.57031 16.0468 4.57031C15.6261 4.57031 15.2851 4.22932 15.2851 3.80859C15.2851 3.38786 15.6261 3.04688 16.0468 3.04688C16.4676 3.04688 16.8086 3.38786 16.8086 3.80859Z" fill="black"/>
<path d="M18.3828 22.9023C17.3852 22.9023 16.4386 22.5875 15.6454 21.9916C14.4808 21.1194 13.8125 19.7852 13.8125 18.332C13.8125 15.812 15.8628 13.7617 18.3828 13.7617C20.1849 13.7617 21.8248 14.8257 22.5603 16.4728C22.821 17.0587 22.9531 17.684 22.9531 18.332C22.9531 20.852 20.9028 22.9023 18.3828 22.9023ZM18.3828 15.2852C16.7026 15.2852 15.3359 16.6519 15.3359 18.332C15.3359 19.3008 15.7818 20.1905 16.5594 20.7729C17.0875 21.1696 17.7177 21.3789 18.3828 21.3789C20.0629 21.3789 21.4296 20.0122 21.4296 18.332C21.4296 17.8988 21.342 17.4818 21.1688 17.093C20.6786 15.9951 19.5849 15.2852 18.3828 15.2852Z" fill="black"/>
<path d="M5.33203 13.7617C4.70103 13.7617 4.23964 13.5144 3.96371 13.3067C3.38132 12.8701 3.04688 12.2028 3.04688 11.4766C3.04688 10.4816 3.65883 9.78888 4.2317 9.47229C4.24222 9.46654 4.25313 9.46098 4.26384 9.45563C4.63022 9.27531 4.96962 9.19141 5.33203 9.19141C6.59204 9.19141 7.61718 10.2166 7.61718 11.4766C7.61718 12.7366 6.59204 13.7617 5.33203 13.7617ZM4.95494 10.8136C4.86607 10.8662 4.57031 11.0715 4.57031 11.4766C4.57031 11.7221 4.67981 11.9395 4.87857 12.0887C4.96982 12.1571 5.12176 12.2383 5.33203 12.2383C5.75197 12.2383 6.09375 11.8965 6.09375 11.4766C6.09375 11.0566 5.75197 10.7148 5.33203 10.7148C5.22967 10.7148 5.12553 10.7319 4.95494 10.8136Z" fill="black"/>
<path d="M14.1962 24.4243C14.0353 24.4243 13.8731 24.375 13.7342 24.2726L1.88562 15.5515C1.54396 15.3 1.47414 14.8233 1.72968 14.4871C1.98521 14.1506 2.46933 14.0819 2.81118 14.3334L14.6596 23.0547C15.0015 23.3062 15.0713 23.7828 14.8157 24.1191C14.664 24.3187 14.4316 24.4243 14.1962 24.4243Z" fill="black"/>
<path d="M24.4763 16.5455C24.1954 16.5455 23.9269 16.3724 23.8045 16.0805L18.1857 2.68417C18.0196 2.28783 18.1853 1.82245 18.5563 1.64486C18.9272 1.46707 19.3626 1.64445 19.5287 2.0408L25.1475 15.4369C25.3138 15.8333 25.1479 16.2989 24.777 16.4765C24.6793 16.5234 24.577 16.5455 24.4763 16.5455Z" fill="black"/>
<path d="M3.10463 7.87878C2.84403 7.87878 2.59133 7.73655 2.45621 7.48451C2.25844 7.11531 2.38797 6.65063 2.74572 6.44633L13.871 0.0955245C14.229 -0.10857 14.6792 0.0251059 14.877 0.394307C15.075 0.763507 14.9454 1.22819 14.5877 1.43248L3.46238 7.7831C3.34865 7.84795 3.22587 7.87878 3.10463 7.87878Z" fill="black"/>
<path d="M18.5151 26C16.8825 26 15.3307 25.4851 14.0279 24.5113C12.1509 23.108 11.0303 20.8572 11.0303 18.4902C11.0303 14.3768 14.3879 11.0303 18.5151 11.0303C21.4666 11.0303 24.151 12.7665 25.3536 15.4536C25.7824 16.4116 26 17.4332 26 18.4902C26 22.6311 22.6423 26 18.5151 26ZM18.5151 12.5223C15.2134 12.5223 12.5272 15.1995 12.5272 18.4902C12.5272 20.3902 13.4241 22.1948 14.9261 23.3177C15.9677 24.0965 17.2088 24.508 18.5151 24.508C21.8168 24.508 24.503 21.8084 24.503 18.4902C24.503 17.6442 24.3293 16.8271 23.9865 16.0615C23.0241 13.9115 20.8765 12.5223 18.5151 12.5223Z" fill="black"/>
<path d="M5.51515 16.5454C4.3122 16.5454 3.16875 16.192 2.20873 15.5234C0.805113 14.5459 0 13.0516 0 11.4242C0 9.55765 1.09441 7.8382 2.85626 6.93646C2.93813 6.89455 3.02266 6.85397 3.10719 6.81586C3.86101 6.47559 4.67125 6.30298 5.51515 6.30298C8.55627 6.30298 11.0303 8.60028 11.0303 11.4242C11.0303 14.2481 8.55627 16.5454 5.51515 16.5454ZM5.51515 7.76618C4.91193 7.76618 4.33353 7.88926 3.79597 8.13179C3.73565 8.15903 3.67553 8.18799 3.61726 8.21791C2.35789 8.86225 1.57576 10.0907 1.57576 11.4242C1.57576 12.5867 2.15107 13.6542 3.15418 14.3529C3.83947 14.8299 4.65587 15.0822 5.51515 15.0822C7.68735 15.0822 9.45453 13.4412 9.45453 11.4242C9.45453 9.40714 7.68735 7.76618 5.51515 7.76618Z" fill="black"/>
<path d="M16.1515 7.87878C14.1965 7.87878 12.6061 6.11159 12.6061 3.93939C12.6061 2.50356 13.3096 1.181 14.4423 0.487294C14.494 0.455697 14.5483 0.424305 14.6032 0.39476C15.0884 0.132749 15.6092 0 16.1515 0C17.5496 0 18.821 0.916729 19.3906 2.33573C19.5939 2.8419 19.697 3.38151 19.697 3.93939C19.697 6.11159 18.1065 7.87878 16.1515 7.87878ZM16.1515 1.57576C15.8258 1.57576 15.5133 1.65516 15.2232 1.81191C15.1906 1.82956 15.1581 1.84823 15.127 1.86731C14.4468 2.28382 14.0243 3.07785 14.0243 3.93939C14.0243 5.24267 14.9786 6.30302 16.1515 6.30302C17.3245 6.30302 18.2788 5.24267 18.2788 3.93939C18.2788 3.60413 18.2171 3.28057 18.0954 2.97773C17.7536 2.12604 16.9904 1.57576 16.1515 1.57576Z" fill="black"/>
</svg>
