<svg width="23" height="36" viewBox="0 0 23 36" fill="none" xmlns="http://www.w3.org/2000/svg">
<path d="M5.95824 35.9527C6.30989 36.1396 6.68083 35.7348 6.46553 35.3997C5.29695 33.581 4.19036 30.5205 5.95342 26.579C8.89353 20.0063 10.6826 16.602 10.6826 16.602C10.6826 16.602 11.6342 20.5747 14.2137 24.107C16.6964 27.5066 18.0552 31.7822 15.8645 35.344C15.6589 35.6783 16.0215 36.0727 16.3708 35.894C19.0826 34.5068 22.1241 31.7243 22.4673 26.1871C22.5938 24.4951 22.4041 22.1263 21.4552 19.137C20.2351 15.3484 18.7352 13.5806 17.8674 12.8214C17.6078 12.5943 17.2041 12.7956 17.2254 13.1399C17.4783 17.2277 15.9404 18.2651 15.0651 15.9273C14.7155 14.9935 14.5116 13.3784 14.5116 11.4116C14.5116 8.13721 13.5616 4.76651 11.4672 2.02745C10.9225 1.31516 10.2852 0.649567 9.55406 0.081979C9.28936 -0.12355 8.90565 0.0830378 8.92988 0.417273C9.09071 2.63704 8.945 8.99874 3.36377 16.599C-1.69676 23.649 0.264182 29.0634 0.960005 30.5299C2.29036 33.3393 4.146 34.9891 5.95824 35.9527Z" fill="#B91A23"/>
</svg>
