<svg width="65" height="30" viewBox="0 0 65 30" fill="none" xmlns="http://www.w3.org/2000/svg">
<path d="M16.0304 10.4921C8.691 10.48 1.56819 5.7966 0 0L48.9696 0.0408724C56.309 0.0504893 63.4318 4.73153 65 10.5305L16.0304 10.4921ZM37.3541 18.664C37.2646 19.1088 37.1139 19.883 36.9208 20.8928L25.927 20.8856C20.4878 20.8783 15.211 17.4283 14.0078 13.1415L40.2786 13.1632C38.7881 14.3917 37.8509 16.1564 37.3541 18.664ZM34.9688 30C30.6033 29.5937 26.7064 26.8024 25.7316 23.4028L36.2168 23.4124C35.8565 25.2925 35.4304 27.5573 34.9688 30Z" fill="#B91A23"/>
</svg>
