<svg width="38" height="33" viewBox="0 0 38 33" fill="none" xmlns="http://www.w3.org/2000/svg">
<path d="M8.63177 5.59577C4.67977 5.58936 0.844412 3.09152 0 0L26.3682 0.0217986C30.3202 0.0269276 34.1556 2.52348 35 5.61628L8.63177 5.59577ZM20.1137 9.95416C20.0656 10.1914 19.9844 10.6043 19.8805 11.1428L13.9607 11.139C11.0319 11.1351 8.19055 9.29508 7.54266 7.00881L21.6885 7.02036C20.8859 7.67559 20.3813 8.61677 20.1137 9.95416ZM18.8294 16C16.4787 15.7833 14.3804 14.2946 13.8555 12.4815L19.5014 12.4866C19.3074 13.4893 19.0779 14.6972 18.8294 16Z" fill="#B91A23"/>
<path d="M38 14.5C38 19.1944 29.5 32.5 29.5 32.5C29.5 32.5 21 19.1944 21 14.5C21 9.80558 24.8056 6 29.5 6C34.1944 6 38 9.80558 38 14.5Z" fill="#B91A23"/>
<circle cx="29.5" cy="14.5" r="7.5" fill="#FBFAF6"/>
<circle cx="29.5" cy="14.5" r="6.5" fill="#B91A23"/>
<circle cx="29.5" cy="14.5" r="3.5" fill="#FBFAF6"/>
</svg>
