<svg width="26" height="26" viewBox="0 0 26 26" fill="none" xmlns="http://www.w3.org/2000/svg">
<path d="M22.1914 6.09375C21.7707 6.09375 21.4297 6.43474 21.4297 6.85547V11.4766C21.4297 11.8965 21.0879 12.2383 20.668 12.2383H13.7617V6.85547C13.7617 6.43474 13.4207 6.09375 13 6.09375C12.5793 6.09375 12.2383 6.43474 12.2383 6.85547V12.2383H4.57031V6.85547C4.57031 6.43474 4.22932 6.09375 3.80859 6.09375C3.38786 6.09375 3.04688 6.43474 3.04688 6.85547V19.1445C3.04688 19.5653 3.38786 19.9062 3.80859 19.9062C4.22932 19.9062 4.57031 19.5653 4.57031 19.1445V13.7617H12.2383V19.1445C12.2383 19.5653 12.5793 19.9062 13 19.9062C13.4207 19.9062 13.7617 19.5653 13.7617 19.1445V13.7617H20.668C21.928 13.7617 22.9531 12.7366 22.9531 11.4766V6.85547C22.9531 6.43474 22.6121 6.09375 22.1914 6.09375Z" fill="black"/>
<path d="M3.80859 7.61719C1.70851 7.61719 0 5.90867 0 3.80859C0 1.70851 1.70851 0 3.80859 0C5.90867 0 7.61719 1.70851 7.61719 3.80859C7.61719 5.90867 5.90867 7.61719 3.80859 7.61719ZM3.80859 1.52344C2.54858 1.52344 1.52344 2.54858 1.52344 3.80859C1.52344 5.0686 2.54858 6.09375 3.80859 6.09375C5.0686 6.09375 6.09375 5.0686 6.09375 3.80859C6.09375 2.54858 5.0686 1.52344 3.80859 1.52344Z" fill="black"/>
<path d="M13 7.61719C10.8999 7.61719 9.19141 5.90867 9.19141 3.80859C9.19141 1.70851 10.8999 0 13 0C15.1001 0 16.8086 1.70851 16.8086 3.80859C16.8086 5.90867 15.1001 7.61719 13 7.61719ZM13 1.52344C11.74 1.52344 10.7148 2.54858 10.7148 3.80859C10.7148 5.0686 11.74 6.09375 13 6.09375C14.26 6.09375 15.2852 5.0686 15.2852 3.80859C15.2852 2.54858 14.26 1.52344 13 1.52344Z" fill="black"/>
<path d="M3.80859 26C1.70851 26 0 24.2915 0 22.1914C0 20.0913 1.70851 18.3828 3.80859 18.3828C5.90867 18.3828 7.61719 20.0913 7.61719 22.1914C7.61719 24.2915 5.90867 26 3.80859 26ZM3.80859 19.9062C2.54858 19.9062 1.52344 20.9314 1.52344 22.1914C1.52344 23.4514 2.54858 24.4766 3.80859 24.4766C5.0686 24.4766 6.09375 23.4514 6.09375 22.1914C6.09375 20.9314 5.0686 19.9062 3.80859 19.9062Z" fill="black"/>
<path d="M13 26C10.8999 26 9.19141 24.2915 9.19141 22.1914C9.19141 20.0913 10.8999 18.3828 13 18.3828C15.1001 18.3828 16.8086 20.0913 16.8086 22.1914C16.8086 24.2915 15.1001 26 13 26ZM13 19.9062C11.74 19.9062 10.7148 20.9314 10.7148 22.1914C10.7148 23.4514 11.74 24.4766 13 24.4766C14.26 24.4766 15.2852 23.4514 15.2852 22.1914C15.2852 20.9314 14.26 19.9062 13 19.9062Z" fill="black"/>
<path d="M22.1914 7.61719C20.0913 7.61719 18.3828 5.90867 18.3828 3.80859C18.3828 1.70851 20.0913 0 22.1914 0C24.2915 0 26 1.70851 26 3.80859C26 5.90867 24.2915 7.61719 22.1914 7.61719ZM22.1914 1.52344C20.9314 1.52344 19.9062 2.54858 19.9062 3.80859C19.9062 5.0686 20.9314 6.09375 22.1914 6.09375C23.4514 6.09375 24.4766 5.0686 24.4766 3.80859C24.4766 2.54858 23.4514 1.52344 22.1914 1.52344Z" fill="black"/>
</svg>
