<?xml version="1.0" standalone="no"?>
<!DOCTYPE svg PUBLIC "-//W3C//DTD SVG 20010904//EN"
 "http://www.w3.org/TR/2001/REC-SVG-20010904/DTD/svg10.dtd">
<svg version="1.0" xmlns="http://www.w3.org/2000/svg"
 width="1652.000000pt" height="1652.000000pt" viewBox="0 0 1652.000000 1652.000000"
 preserveAspectRatio="xMidYMid meet">
<metadata>
Created by potrace 1.11, written by Peter Selinger 2001-2013
</metadata>
<g transform="translate(0.000000,1652.000000) scale(0.100000,-0.100000)"
fill="#000000" stroke="none">
<path d="M7527 12374 c-2 -2 -75 -6 -163 -9 -289 -10 -522 -21 -629 -30 -33
-3 -105 -8 -160 -10 -55 -2 -100 -5 -100 -6 0 0 -16 -2 -35 -3 -108 -8 -236
-18 -255 -22 -12 -2 -60 -6 -106 -9 -46 -2 -84 -5 -84 -6 0 0 -16 -2 -35 -4
-19 -1 -62 -6 -95 -9 -33 -4 -85 -9 -115 -11 -30 -3 -73 -8 -95 -11 -46 -7
-88 -12 -160 -19 -27 -2 -68 -7 -90 -11 -22 -3 -58 -7 -80 -9 -22 -2 -40 -4
-40 -5 0 -1 -11 -3 -25 -5 -57 -6 -136 -16 -150 -20 -8 -2 -40 -6 -71 -10 -31
-3 -66 -7 -76 -9 -11 -3 -44 -7 -74 -11 -30 -4 -74 -11 -98 -16 -24 -5 -46 -8
-48 -5 -3 3 -15 1 -27 -3 -11 -5 -48 -12 -81 -16 -32 -3 -62 -8 -65 -10 -3 -2
-27 -6 -54 -9 -26 -3 -51 -8 -55 -10 -4 -3 -24 -6 -44 -8 -21 -1 -37 -6 -37
-11 0 -4 -4 -6 -9 -3 -4 3 -44 -2 -87 -10 -44 -9 -88 -17 -99 -18 -11 -1 -45
-8 -75 -14 -30 -6 -66 -14 -80 -16 -14 -3 -69 -14 -124 -25 -54 -12 -108 -23
-120 -26 -11 -2 -32 -7 -46 -10 -14 -3 -38 -8 -55 -11 -44 -9 -60 -12 -60 -14
0 -1 -11 -4 -25 -6 -14 -3 -43 -9 -65 -15 -22 -6 -51 -13 -65 -15 -14 -3 -52
-12 -85 -20 -33 -9 -67 -17 -75 -19 -8 -2 -78 -20 -155 -40 -77 -20 -147 -38
-155 -40 -8 -2 -15 -4 -15 -5 0 -1 -7 -3 -15 -5 -8 -1 -78 -21 -155 -44 -77
-23 -147 -44 -155 -46 -8 -1 -44 -13 -80 -25 -36 -12 -70 -23 -77 -24 -7 -1
-16 -5 -19 -9 -4 -4 -18 -7 -30 -7 -13 0 -25 -4 -28 -9 -3 -4 -20 -12 -38 -16
-18 -4 -35 -9 -38 -10 -34 -13 -223 -79 -232 -81 -5 -1 -10 -3 -13 -4 -3 -1
-8 -3 -12 -4 -5 -1 -19 -8 -33 -16 -14 -7 -26 -12 -28 -11 -1 1 -28 -7 -60
-19 -83 -31 -184 -70 -207 -80 -11 -5 -101 -43 -200 -85 -99 -43 -198 -87
-220 -98 -22 -12 -42 -22 -45 -22 -22 -4 -293 -150 -395 -213 -27 -17 -70 -43
-95 -58 -50 -31 -226 -157 -280 -201 -80 -66 -269 -265 -321 -338 -102 -145
-176 -314 -196 -450 -10 -64 -10 -264 -1 -311 5 -27 11 -58 12 -69 10 -66 76
-245 102 -275 7 -8 12 -17 11 -20 -3 -13 116 -190 175 -261 93 -112 256 -267
373 -354 22 -16 42 -32 45 -35 3 -3 21 -17 40 -30 19 -14 40 -28 45 -32 17
-14 206 -138 210 -138 1 0 34 -19 71 -42 155 -94 587 -311 622 -311 6 0 12 -5
12 -10 0 -6 3 -8 6 -4 3 3 22 -4 42 -15 20 -11 44 -21 53 -23 9 -2 42 -15 73
-29 31 -14 60 -26 65 -26 5 0 34 -11 65 -25 31 -14 56 -22 56 -19 0 4 6 2 13
-4 14 -12 365 -136 417 -147 8 -2 16 -4 18 -5 1 -2 5 -3 10 -5 4 -1 14 -4 22
-7 33 -12 191 -60 202 -62 7 -1 19 -5 26 -9 6 -5 12 -6 12 -3 0 3 12 1 28 -5
15 -6 52 -18 82 -26 30 -7 69 -18 85 -23 37 -10 248 -66 330 -87 33 -8 65 -16
70 -17 6 -2 28 -7 50 -11 22 -5 42 -10 45 -10 69 -18 220 -53 250 -59 60 -11
230 -46 242 -51 7 -2 31 -7 53 -11 59 -9 95 -16 160 -29 82 -16 162 -30 230
-40 18 -3 110 -19 160 -29 11 -2 43 -7 70 -10 28 -4 73 -11 102 -17 28 -5 64
-12 80 -13 15 -2 28 -4 28 -5 0 -1 20 -4 45 -6 25 -2 77 -9 115 -15 39 -7 84
-13 100 -15 17 -1 48 -5 70 -8 22 -4 60 -9 85 -11 64 -7 148 -18 250 -30 14
-2 52 -7 85 -10 33 -4 76 -9 96 -11 20 -3 65 -7 100 -10 35 -3 78 -7 94 -9 17
-2 62 -6 100 -10 39 -3 97 -9 129 -12 33 -3 85 -7 115 -9 31 -2 83 -6 116 -9
110 -10 336 -26 445 -31 41 -2 129 -6 195 -10 66 -3 161 -8 210 -10 516 -25
1586 -25 2080 0 405 21 581 31 685 40 135 11 187 15 250 19 36 3 88 7 115 10
28 3 84 8 125 11 78 7 144 14 195 19 17 2 62 6 100 10 39 4 81 9 95 11 24 4
102 13 180 20 19 2 35 4 35 5 0 1 10 2 125 14 36 4 78 9 93 12 15 3 44 7 65 9
20 2 46 6 57 8 21 5 85 14 159 23 22 2 52 6 66 9 14 2 43 6 65 10 22 3 61 10
88 15 26 6 51 9 55 9 4 -1 9 0 12 1 8 3 41 8 85 15 22 3 51 7 65 10 49 10 86
16 120 21 35 4 44 6 90 17 14 4 41 9 60 12 35 5 77 12 115 20 11 2 32 7 48 10
62 12 73 14 97 20 14 3 39 8 55 11 17 3 50 10 75 15 25 6 56 13 70 15 14 3 31
7 39 10 8 2 30 7 50 10 20 3 47 9 61 14 14 5 43 12 65 16 22 4 45 9 50 10 6 2
21 5 35 8 26 6 197 50 360 92 106 28 98 26 160 43 25 7 45 12 45 11 0 -1 14 4
30 10 17 7 38 13 49 16 50 10 599 189 671 219 17 6 55 22 85 33 30 12 69 27
85 33 17 7 33 13 38 14 4 2 9 4 12 5 3 1 8 3 13 5 4 1 29 11 55 23 27 12 51
22 53 22 3 0 31 12 62 26 31 14 73 33 92 41 155 68 501 246 570 293 8 6 23 13
32 16 9 3 19 13 22 21 3 8 10 12 15 9 5 -3 14 1 21 9 7 8 18 15 25 15 8 0 15
3 17 8 2 4 37 29 78 57 41 27 77 52 80 55 18 18 91 70 99 70 5 0 11 3 13 8 2
4 35 33 73 66 155 131 352 351 416 466 8 13 20 30 27 38 6 7 12 20 12 28 0 8
5 14 10 14 6 0 10 9 10 20 0 11 5 20 10 20 6 0 10 8 10 18 0 10 4 22 9 27 12
13 57 145 70 207 29 131 32 302 6 414 -15 66 -40 145 -56 178 -10 22 -19 43
-19 48 0 10 -96 173 -113 190 -7 7 -20 25 -29 40 -28 42 -146 168 -236 251
-55 50 -250 196 -279 210 -13 5 -23 14 -23 19 0 4 -5 8 -12 8 -6 0 -25 11 -42
23 -124 94 -537 302 -866 437 -153 62 -159 65 -225 89 -83 31 -136 52 -160 62
-11 4 -47 17 -80 28 -33 11 -104 35 -157 54 -54 19 -98 33 -98 30 0 -3 -6 -1
-12 4 -11 8 -34 17 -78 28 -3 0 -65 20 -139 44 -73 23 -143 44 -155 47 -11 2
-32 8 -46 14 -14 5 -60 18 -103 29 -43 11 -81 22 -85 25 -5 3 -19 7 -33 10
-13 2 -60 14 -104 26 -44 12 -91 23 -105 26 -14 3 -43 10 -65 16 -22 5 -51 12
-64 15 -13 2 -32 8 -41 13 -10 5 -20 7 -22 4 -3 -2 -17 0 -32 6 -24 9 -47 15
-101 25 -46 9 -82 17 -119 26 -22 6 -51 12 -65 14 -14 2 -26 4 -26 5 0 1 -9 3
-20 5 -11 1 -52 10 -90 18 -39 9 -83 18 -98 21 -15 2 -62 11 -104 20 -219 42
-310 59 -333 61 -14 2 -68 10 -120 20 -52 9 -106 18 -120 20 -14 2 -43 6 -65
10 -22 3 -56 8 -75 10 -19 2 -35 5 -35 5 0 1 -11 3 -25 4 -14 2 -45 7 -70 11
-25 5 -56 9 -70 10 -14 1 -43 5 -65 9 -43 6 -114 16 -155 21 -24 3 -90 11
-160 20 -19 3 -55 7 -80 10 -25 3 -65 7 -90 10 -25 3 -67 8 -95 10 -27 2 -66
6 -85 9 -49 8 -147 18 -200 21 -25 2 -72 6 -105 9 -33 3 -87 8 -120 11 -33 3
-80 8 -105 10 -68 6 -217 16 -290 20 -36 1 -99 5 -140 9 -84 7 -246 16 -390
21 -52 2 -95 4 -95 5 0 9 -1758 23 -1768 14z m2118 -599 c39 -4 88 -9 110 -11
22 -2 65 -7 95 -9 30 -3 73 -7 95 -9 22 -3 67 -7 100 -10 77 -8 133 -15 165
-20 14 -3 54 -7 90 -10 36 -4 75 -8 85 -10 11 -2 47 -7 80 -10 33 -4 75 -9 93
-13 17 -3 47 -6 65 -8 29 -2 87 -10 162 -20 17 -2 51 -8 76 -13 25 -5 57 -8
72 -8 15 1 27 -2 27 -7 0 -4 3 -6 8 -4 6 4 67 -3 155 -18 51 -9 92 -16 127
-21 38 -5 131 -21 170 -29 14 -3 41 -7 60 -10 19 -2 63 -10 98 -19 34 -8 66
-15 70 -15 67 -8 103 -15 108 -22 3 -5 9 -7 14 -4 5 3 30 0 57 -6 26 -6 59
-12 73 -14 14 -2 25 -4 25 -5 0 -1 9 -3 20 -5 11 -2 52 -11 90 -20 39 -8 79
-17 90 -19 11 -2 43 -9 70 -16 28 -7 57 -13 65 -14 8 -2 25 -6 37 -10 12 -4
30 -8 40 -10 10 -2 65 -16 123 -31 58 -15 117 -30 133 -32 15 -3 30 -9 33 -14
3 -5 16 -9 29 -9 13 0 34 -4 47 -9 13 -5 57 -19 98 -31 41 -12 102 -31 135
-42 73 -25 90 -30 90 -28 0 2 54 -18 110 -40 11 -4 58 -22 105 -40 121 -45
273 -111 285 -121 5 -5 14 -9 20 -9 7 0 54 -23 106 -51 52 -28 108 -59 124
-68 48 -25 196 -126 240 -163 75 -63 195 -189 195 -206 0 -6 4 -12 8 -14 18
-7 73 -121 88 -183 2 -5 6 -21 9 -35 7 -26 8 -144 2 -170 -2 -8 -9 -35 -16
-60 -7 -25 -12 -45 -10 -46 2 0 -2 -8 -10 -17 -7 -10 -10 -17 -6 -17 5 0 0 -9
-10 -20 -10 -11 -15 -20 -11 -20 4 0 -12 -35 -34 -77 -126 -239 -320 -401
-585 -488 -78 -26 -91 -30 -137 -40 -60 -13 -75 -16 -106 -20 -18 -2 -41 -6
-50 -9 -57 -17 -348 -27 -437 -14 -88 12 -195 43 -285 81 -98 42 -232 115
-238 129 -2 4 -8 8 -13 8 -9 0 -67 38 -79 51 -3 3 -25 19 -50 36 -25 17 -56
40 -70 52 -14 11 -30 24 -35 28 -12 9 -133 111 -151 128 -6 5 -33 28 -59 50
-26 22 -56 48 -66 58 -11 9 -23 17 -28 17 -5 0 -11 4 -13 8 -1 4 -61 55 -133
112 -71 57 -135 109 -141 115 -7 5 -27 21 -44 35 -18 14 -49 39 -69 55 -30 26
-93 76 -149 120 -7 5 -24 20 -37 33 -13 12 -28 22 -34 22 -5 0 -11 3 -13 8 -1
4 -39 36 -83 72 -44 35 -85 69 -91 75 -7 5 -26 21 -44 35 -17 14 -40 32 -50
40 -47 39 -99 82 -140 114 -25 20 -54 44 -66 54 -11 9 -37 31 -58 47 -21 17
-48 38 -60 49 -11 10 -37 30 -56 45 -19 14 -42 33 -51 41 -25 23 -61 53 -99
81 -19 15 -44 35 -55 46 -11 10 -38 32 -60 48 -21 17 -47 37 -56 45 -10 8 -24
20 -31 25 -20 16 -249 204 -284 234 -17 14 -48 40 -69 56 -21 17 -43 35 -49
41 -6 5 -36 30 -67 55 -121 96 -249 201 -249 204 0 4 60 0 165 -10z m-2630
-30 c-16 -15 -45 -39 -64 -53 -18 -15 -42 -34 -53 -44 -10 -9 -37 -31 -58 -48
-21 -17 -48 -39 -58 -48 -11 -10 -35 -29 -53 -44 -19 -14 -45 -36 -59 -48 -14
-12 -41 -34 -60 -49 -19 -14 -39 -31 -45 -37 -5 -5 -32 -28 -60 -49 -27 -22
-59 -48 -70 -57 -47 -39 -214 -175 -244 -198 -18 -14 -43 -35 -56 -47 -14 -12
-42 -34 -62 -50 -21 -15 -42 -33 -48 -39 -5 -6 -44 -38 -85 -70 -41 -32 -77
-61 -80 -64 -3 -3 -52 -44 -110 -90 -58 -47 -110 -89 -116 -95 -7 -5 -20 -17
-31 -25 -42 -34 -119 -95 -130 -105 -7 -5 -18 -15 -25 -20 -164 -132 -277
-223 -293 -237 -26 -21 -152 -123 -188 -151 -15 -12 -33 -27 -40 -33 -7 -5
-92 -74 -190 -153 -98 -78 -190 -154 -205 -169 -16 -15 -46 -40 -67 -56 -22
-17 -42 -33 -45 -38 -3 -4 -48 -39 -100 -77 -52 -39 -99 -74 -105 -78 -24 -19
-125 -83 -131 -83 -3 0 -17 -9 -31 -20 -14 -11 -29 -17 -34 -14 -5 3 -9 1 -9
-4 0 -17 -221 -104 -295 -117 -11 -2 -31 -6 -45 -10 -60 -13 -86 -15 -183 -16
-105 0 -212 6 -282 17 -34 5 -79 13 -215 40 -78 15 -367 143 -390 173 -3 3
-23 20 -45 36 -43 32 -155 145 -155 157 0 4 -6 13 -14 20 -46 46 -127 212
-164 338 -42 138 -12 298 82 438 80 119 256 273 425 371 66 39 279 152 283
150 2 0 26 10 53 23 28 12 52 23 55 23 3 1 21 9 41 18 20 9 42 17 50 19 8 2
16 6 19 9 3 3 32 15 65 27 33 11 101 35 150 52 50 18 95 33 100 35 6 1 17 5
25 8 36 15 381 117 415 123 11 2 51 12 89 23 38 11 73 18 77 15 5 -3 9 0 9 7
0 7 3 10 6 6 3 -3 27 1 52 8 46 14 88 23 127 30 11 1 40 8 65 15 25 7 56 14
70 17 14 2 53 10 88 18 34 8 77 17 95 20 17 3 39 8 48 11 9 2 34 7 55 10 69
11 79 12 79 14 0 2 11 4 108 21 40 7 74 13 77 14 3 1 25 5 50 9 25 5 54 10 65
12 11 3 38 7 60 9 22 3 67 11 100 17 33 6 71 12 85 13 14 1 25 3 25 4 0 1 14
4 30 6 48 6 115 16 138 21 12 2 40 6 62 9 67 7 129 16 155 21 14 2 43 6 65 9
22 3 56 7 75 10 77 10 164 21 240 29 30 4 71 9 90 11 19 2 62 7 95 10 33 3 71
8 85 11 14 2 50 6 80 9 55 4 148 13 205 20 17 2 68 7 115 10 47 4 86 8 87 9 2
2 26 3 55 5 l53 2 -30 -26z m1365 -829 c84 -20 120 -31 120 -36 0 -4 6 -7 13
-7 6 0 44 -15 82 -33 39 -19 73 -33 78 -32 4 1 7 -2 7 -7 0 -5 10 -13 23 -17
12 -4 46 -22 75 -40 29 -19 55 -34 57 -34 10 0 280 -183 283 -192 2 -4 9 -8
15 -8 7 0 24 -11 39 -25 15 -14 30 -25 33 -25 6 0 72 -47 85 -60 3 -3 28 -21
55 -39 28 -19 52 -38 55 -41 3 -3 29 -23 58 -44 28 -21 52 -42 52 -47 0 -5 6
-9 13 -9 8 0 29 -13 48 -30 19 -16 77 -63 129 -105 95 -76 164 -131 184 -150
6 -5 34 -28 61 -50 28 -22 55 -44 61 -50 6 -5 33 -29 60 -52 27 -23 59 -50 70
-60 12 -10 48 -40 80 -68 32 -27 68 -59 80 -70 12 -11 50 -45 85 -75 113 -97
109 -92 93 -160 -37 -158 -131 -333 -254 -474 -36 -41 -68 -75 -71 -75 -3 -1
-22 -15 -42 -33 -21 -19 -48 -33 -69 -35 -97 -8 -144 -12 -253 -19 -66 -5
-144 -9 -172 -9 -29 0 -53 -2 -53 -5 0 -3 -39 -6 -88 -6 -48 -1 -152 -5 -232
-8 -312 -14 -513 -17 -980 -17 -588 0 -904 8 -1405 36 -162 9 -237 15 -245 20
-5 3 -12 1 -15 -5 -4 -7 -11 -7 -18 -2 -11 8 -64 13 -129 12 -39 0 -210 169
-280 277 -16 24 -28 47 -28 51 0 5 -9 20 -19 34 -22 27 -85 203 -94 261 -6 36
-3 40 66 106 86 83 118 112 227 211 46 41 91 82 100 90 19 18 156 138 226 197
27 23 60 52 74 64 14 12 45 38 70 58 25 20 47 38 50 41 4 4 77 63 120 97 130
102 178 139 210 161 134 95 207 148 218 159 7 7 20 13 27 13 8 0 18 7 23 16 5
9 12 15 16 15 7 -1 38 17 115 68 124 82 406 219 484 235 6 2 19 6 27 10 60 26
230 39 300 22z"/>
<path d="M4071 5880 c-4 -3 -8 -293 -9 -645 -1 -352 -2 -642 -3 -645 -1 -3 -1
-9 0 -14 4 -19 4 -237 0 -240 -2 -3 -3 -38 -1 -80 l4 -76 194 0 194 0 1 28 c0
15 1 160 2 322 l2 295 828 2 c455 0 828 -2 828 -5 1 -4 3 -149 4 -322 2 -173
3 -318 4 -322 0 -4 88 -7 195 -7 l194 1 0 852 0 852 -196 -2 c-108 0 -199 -2
-202 -3 -3 0 -6 -153 -6 -338 l0 -337 -824 -1 -825 0 0 343 c0 188 -2 343 -5
343 -17 4 -373 3 -379 -1z"/>
<path d="M12210 5879 c0 -3 27 -30 61 -60 34 -30 79 -70 100 -89 21 -19 47
-42 57 -50 11 -8 52 -44 92 -80 40 -36 81 -72 90 -80 9 -8 45 -40 80 -70 35
-30 72 -63 84 -73 40 -34 140 -122 161 -142 12 -11 51 -45 86 -75 68 -59 100
-87 153 -135 18 -16 59 -52 91 -80 32 -27 92 -79 133 -115 l74 -66 0 -287 c0
-158 3 -288 6 -288 22 -4 442 -3 443 1 1 3 2 132 3 288 l1 283 65 60 c56 52
96 89 241 220 14 13 70 65 124 114 133 122 138 126 234 214 46 42 104 96 130
119 25 24 75 69 110 100 35 32 87 80 117 107 29 28 85 79 124 114 38 35 70 66
70 70 0 11 -534 7 -546 -4 -26 -24 -138 -121 -156 -135 -10 -8 -36 -31 -57
-50 -20 -19 -64 -57 -96 -85 -32 -27 -64 -55 -71 -62 -6 -7 -49 -44 -95 -84
-46 -39 -91 -79 -100 -88 -9 -9 -36 -32 -60 -53 -24 -20 -57 -48 -74 -63 -16
-14 -54 -47 -84 -73 -30 -26 -66 -57 -79 -69 l-24 -22 -36 34 c-21 18 -48 43
-62 55 -39 33 -129 112 -165 145 -18 17 -52 46 -75 65 -23 19 -54 46 -69 60
-14 14 -55 50 -90 80 -35 30 -76 66 -90 79 -14 13 -50 44 -80 70 -78 67 -83
72 -137 119 -27 23 -60 53 -73 65 -23 21 -29 22 -317 22 -162 0 -294 -2 -294
-6z"/>
<path d="M1767 5874 c-1 -1 -33 -4 -72 -7 -174 -14 -305 -124 -331 -278 -4
-24 -8 -273 -8 -554 -1 -477 0 -514 18 -570 11 -33 24 -65 30 -72 6 -7 25 -30
41 -51 43 -56 126 -104 223 -130 62 -16 143 -17 1075 -17 1094 1 1034 -3 1017
55 -4 15 -4 33 0 40 5 7 5 23 2 34 -6 19 -7 45 -2 71 1 6 1 33 0 60 0 28 -1
60 -1 73 1 12 -5 22 -12 22 -6 1 -449 1 -984 1 -926 0 -973 1 -995 19 l-23 18
0 429 c0 368 2 432 15 444 21 21 48 30 55 19 4 -6 13 -7 24 -1 9 5 23 6 30 2
7 -5 30 -5 52 -1 22 4 42 4 45 -1 2 -4 16 -4 29 1 15 6 27 6 30 -1 4 -6 13 -6
23 0 9 5 26 5 39 0 14 -5 23 -5 23 1 0 6 9 6 23 1 13 -5 30 -5 38 -1 8 5 21 5
28 1 7 -5 28 -5 47 -1 19 4 36 4 39 -1 3 -4 17 -4 30 1 15 6 27 6 30 -1 4 -5
11 -7 16 -3 13 8 79 11 79 4 0 -3 17 -4 38 -2 47 4 50 4 90 -1 17 -2 32 0 32
5 0 4 11 3 25 -2 15 -6 26 -6 30 1 4 5 11 6 17 3 13 -8 214 -8 227 0 5 4 12 2
16 -4 4 -7 12 -7 25 0 13 7 21 7 25 0 4 -6 13 -7 23 -1 11 6 24 6 34 0 10 -6
26 -5 42 1 15 5 26 6 26 0 0 -5 12 -5 30 0 17 5 30 6 30 2 0 -4 32 -7 70 -7
39 0 70 3 70 7 0 4 11 3 25 -2 17 -6 25 -6 25 1 0 6 4 7 10 4 13 -8 198 -10
206 -2 4 3 15 2 25 -3 12 -7 20 -7 24 0 4 6 11 8 16 4 9 -5 64 -7 125 -5 21 1
21 5 22 196 0 193 0 195 -21 196 -45 1 -1979 4 -1980 3z"/>
<path d="M7307 5874 c-1 -1 -45 -4 -97 -7 -104 -6 -126 -10 -136 -20 -4 -4
-13 -7 -20 -7 -18 0 -94 -49 -127 -82 -15 -15 -36 -44 -46 -65 -44 -84 -46
-113 -45 -654 1 -282 4 -524 7 -537 11 -45 32 -97 47 -117 28 -37 114 -115
127 -115 7 0 13 -4 13 -8 0 -7 52 -26 160 -58 25 -8 2090 -13 2122 -6 12 3 14
10 8 30 -4 15 -4 36 0 47 4 11 4 32 -1 47 -4 15 -4 30 0 32 4 3 5 27 1 53 -3
27 -3 60 0 73 3 14 4 35 2 48 -4 20 -10 22 -61 22 -31 0 -491 2 -1023 3 -903
2 -968 3 -985 19 -14 15 -17 38 -18 142 l-1 125 116 1 c63 1 122 1 130 1 59
-1 238 0 298 2 39 1 72 0 72 -3 0 -3 44 -4 97 -3 195 5 342 4 352 -1 5 -4 12
-2 16 4 4 6 11 8 16 5 9 -6 176 -7 377 -2 56 1 102 -2 102 -6 0 -5 4 -6 9 -3
5 3 65 6 134 7 127 1 147 7 127 39 -4 7 -5 22 -1 33 4 10 4 40 1 66 -3 26 -3
60 1 74 4 15 3 27 -1 27 -5 0 -5 13 0 29 4 15 4 34 -1 42 -4 7 -4 19 2 25 7 8
6 15 -3 20 -7 5 -420 9 -918 9 -498 0 -910 3 -915 7 -12 7 -13 231 -1 266 16
48 4 48 1074 47 551 0 1002 2 1003 5 1 3 2 80 3 173 1 107 -2 168 -9 168 -13
2 -2006 4 -2008 3z"/>
<path d="M9634 5873 c-5 -2 -8 -31 -7 -65 1 -35 4 -403 7 -818 3 -415 5 -767
6 -782 l0 -28 201 0 c196 0 201 0 196 20 -3 11 -1 20 5 20 5 0 7 4 3 10 -3 5
-5 29 -5 52 1 89 1 104 0 123 0 11 -1 56 -1 99 0 44 -2 83 -4 87 -3 4 1 10 7
12 10 4 10 6 1 6 -9 1 -10 8 -4 24 5 12 5 31 1 42 -4 11 -4 31 0 44 3 13 3 46
0 73 -4 26 -4 51 -1 54 3 2 4 22 3 42 l-3 37 493 -1 c271 -1 496 -2 499 -3 3
0 41 -43 85 -93 126 -148 137 -161 166 -191 15 -16 33 -36 40 -46 16 -22 115
-136 146 -168 13 -12 21 -23 18 -23 -2 0 8 -13 22 -28 42 -43 120 -132 116
-132 -2 0 13 -16 33 -35 l36 -35 248 2 c137 1 249 3 249 5 0 2 -15 19 -32 37
-18 18 -76 79 -128 135 -52 56 -124 133 -160 170 -36 38 -117 124 -180 191
-63 68 -134 143 -157 166 l-41 44 46 0 c131 0 379 8 392 12 63 20 105 51 135
98 42 67 47 110 46 370 0 207 -3 251 -17 279 -25 50 -103 122 -175 161 l-64
35 -1106 0 c-608 1 -1110 0 -1115 -2z m2049 -383 c26 0 45 -7 60 -22 20 -20
23 -32 21 -103 -3 -101 -8 -117 -47 -138 -29 -14 -113 -16 -859 -16 -622 1
-828 4 -829 12 0 7 -1 68 -3 137 -1 93 1 126 11 130 9 4 1299 4 1646 0z"/>
</g>
</svg>
